<svg xmlns="http://www.w3.org/2000/svg" xmlns:xlink="http://www.w3.org/1999/xlink" width="480" zoomAndPan="magnify" viewBox="0 0 360 143.999998" height="192" preserveAspectRatio="xMidYMid meet" version="1.2"><defs><linearGradient x1="0.000000000000075791" gradientTransform="matrix(0.5625,0,0,0.5625,0.000003125,0.000002)" y1="128" x2="639.999973" gradientUnits="userSpaceOnUse" y2="128" id="ef3f7bdb76"><stop style="stop-color:#9b5de5;stop-opacity:1;" offset="0"/><stop style="stop-color:#9b5de4;stop-opacity:1;" offset="0.00390625"/><stop style="stop-color:#9a5de4;stop-opacity:1;" offset="0.0078125"/><stop style="stop-color:#9a5ce3;stop-opacity:1;" offset="0.0117188"/><stop style="stop-color:#9a5ce3;stop-opacity:1;" offset="0.015625"/><stop style="stop-color:#995ce2;stop-opacity:1;" offset="0.0195312"/><stop style="stop-color:#995ce2;stop-opacity:1;" offset="0.0234375"/><stop style="stop-color:#985be1;stop-opacity:1;" offset="0.0273438"/><stop style="stop-color:#985be1;stop-opacity:1;" offset="0.03125"/><stop style="stop-color:#985be0;stop-opacity:1;" offset="0.0351562"/><stop style="stop-color:#975ae0;stop-opacity:1;" offset="0.0390625"/><stop style="stop-color:#975adf;stop-opacity:1;" offset="0.0429688"/><stop style="stop-color:#975adf;stop-opacity:1;" offset="0.046875"/><stop style="stop-color:#965ade;stop-opacity:1;" offset="0.0507812"/><stop style="stop-color:#9659dd;stop-opacity:1;" offset="0.0546875"/><stop style="stop-color:#9559dd;stop-opacity:1;" offset="0.0585938"/><stop style="stop-color:#9559dc;stop-opacity:1;" offset="0.0625"/><stop style="stop-color:#9559dc;stop-opacity:1;" offset="0.0664062"/><stop style="stop-color:#9458db;stop-opacity:1;" offset="0.0703125"/><stop style="stop-color:#9458db;stop-opacity:1;" offset="0.0742187"/><stop style="stop-color:#9458da;stop-opacity:1;" offset="0.078125"/><stop style="stop-color:#9358da;stop-opacity:1;" offset="0.0820312"/><stop style="stop-color:#9357d9;stop-opacity:1;" offset="0.0859375"/><stop style="stop-color:#9257d9;stop-opacity:1;" offset="0.0898437"/><stop style="stop-color:#9257d8;stop-opacity:1;" offset="0.09375"/><stop style="stop-color:#9257d8;stop-opacity:1;" offset="0.0976562"/><stop style="stop-color:#9156d7;stop-opacity:1;" offset="0.101562"/><stop style="stop-color:#9156d6;stop-opacity:1;" offset="0.105469"/><stop style="stop-color:#9156d6;stop-opacity:1;" offset="0.109375"/><stop style="stop-color:#9055d5;stop-opacity:1;" offset="0.113281"/><stop style="stop-color:#9055d5;stop-opacity:1;" offset="0.117187"/><stop style="stop-color:#9055d4;stop-opacity:1;" offset="0.121094"/><stop style="stop-color:#8f55d4;stop-opacity:1;" offset="0.125"/><stop style="stop-color:#8f54d3;stop-opacity:1;" offset="0.128906"/><stop style="stop-color:#8e54d3;stop-opacity:1;" offset="0.132812"/><stop style="stop-color:#8e54d2;stop-opacity:1;" offset="0.136719"/><stop style="stop-color:#8e54d2;stop-opacity:1;" offset="0.140625"/><stop style="stop-color:#8d53d1;stop-opacity:1;" offset="0.144531"/><stop style="stop-color:#8d53d1;stop-opacity:1;" offset="0.148438"/><stop style="stop-color:#8d53d0;stop-opacity:1;" offset="0.152344"/><stop style="stop-color:#8c53cf;stop-opacity:1;" offset="0.15625"/><stop style="stop-color:#8c52cf;stop-opacity:1;" offset="0.160156"/><stop style="stop-color:#8b52ce;stop-opacity:1;" offset="0.164062"/><stop style="stop-color:#8b52ce;stop-opacity:1;" offset="0.167969"/><stop style="stop-color:#8b52cd;stop-opacity:1;" offset="0.171875"/><stop style="stop-color:#8a51cd;stop-opacity:1;" offset="0.175781"/><stop style="stop-color:#8a51cc;stop-opacity:1;" offset="0.179688"/><stop style="stop-color:#8a51cc;stop-opacity:1;" offset="0.183594"/><stop style="stop-color:#8950cb;stop-opacity:1;" offset="0.1875"/><stop style="stop-color:#8950cb;stop-opacity:1;" offset="0.191406"/><stop style="stop-color:#8850ca;stop-opacity:1;" offset="0.195312"/><stop style="stop-color:#8850ca;stop-opacity:1;" offset="0.199219"/><stop style="stop-color:#884fc9;stop-opacity:1;" offset="0.203125"/><stop style="stop-color:#874fc8;stop-opacity:1;" offset="0.207031"/><stop style="stop-color:#874fc8;stop-opacity:1;" offset="0.210938"/><stop style="stop-color:#874fc7;stop-opacity:1;" offset="0.214844"/><stop style="stop-color:#864ec7;stop-opacity:1;" offset="0.21875"/><stop style="stop-color:#864ec6;stop-opacity:1;" offset="0.222656"/><stop style="stop-color:#854ec6;stop-opacity:1;" offset="0.226562"/><stop style="stop-color:#854ec5;stop-opacity:1;" offset="0.230469"/><stop style="stop-color:#854dc5;stop-opacity:1;" offset="0.234375"/><stop style="stop-color:#844dc4;stop-opacity:1;" offset="0.238281"/><stop style="stop-color:#844dc4;stop-opacity:1;" offset="0.242188"/><stop style="stop-color:#844dc3;stop-opacity:1;" offset="0.246094"/><stop style="stop-color:#834cc2;stop-opacity:1;" offset="0.25"/><stop style="stop-color:#834cc2;stop-opacity:1;" offset="0.253906"/><stop style="stop-color:#834cc1;stop-opacity:1;" offset="0.257812"/><stop style="stop-color:#824cc1;stop-opacity:1;" offset="0.261719"/><stop style="stop-color:#824bc0;stop-opacity:1;" offset="0.265625"/><stop style="stop-color:#814bc0;stop-opacity:1;" offset="0.269531"/><stop style="stop-color:#814bbf;stop-opacity:1;" offset="0.273438"/><stop style="stop-color:#814abf;stop-opacity:1;" offset="0.277344"/><stop style="stop-color:#804abe;stop-opacity:1;" offset="0.28125"/><stop style="stop-color:#804abe;stop-opacity:1;" offset="0.285156"/><stop style="stop-color:#804abd;stop-opacity:1;" offset="0.289062"/><stop style="stop-color:#7f49bd;stop-opacity:1;" offset="0.292969"/><stop style="stop-color:#7f49bc;stop-opacity:1;" offset="0.296875"/><stop style="stop-color:#7e49bb;stop-opacity:1;" offset="0.300781"/><stop style="stop-color:#7e49bb;stop-opacity:1;" offset="0.304688"/><stop style="stop-color:#7e48ba;stop-opacity:1;" offset="0.308594"/><stop style="stop-color:#7d48ba;stop-opacity:1;" offset="0.3125"/><stop style="stop-color:#7d48b9;stop-opacity:1;" offset="0.316406"/><stop style="stop-color:#7d48b9;stop-opacity:1;" offset="0.320312"/><stop style="stop-color:#7c47b8;stop-opacity:1;" offset="0.324219"/><stop style="stop-color:#7c47b8;stop-opacity:1;" offset="0.328125"/><stop style="stop-color:#7b47b7;stop-opacity:1;" offset="0.332031"/><stop style="stop-color:#7b47b7;stop-opacity:1;" offset="0.335938"/><stop style="stop-color:#7b46b6;stop-opacity:1;" offset="0.339844"/><stop style="stop-color:#7a46b6;stop-opacity:1;" offset="0.34375"/><stop style="stop-color:#7a46b5;stop-opacity:1;" offset="0.347656"/><stop style="stop-color:#7a45b4;stop-opacity:1;" offset="0.351562"/><stop style="stop-color:#7945b4;stop-opacity:1;" offset="0.355469"/><stop style="stop-color:#7945b3;stop-opacity:1;" offset="0.359375"/><stop style="stop-color:#7845b3;stop-opacity:1;" offset="0.363281"/><stop style="stop-color:#7844b2;stop-opacity:1;" offset="0.367188"/><stop style="stop-color:#7844b2;stop-opacity:1;" offset="0.371094"/><stop style="stop-color:#7744b1;stop-opacity:1;" offset="0.375"/><stop style="stop-color:#7744b1;stop-opacity:1;" offset="0.378906"/><stop style="stop-color:#7743b0;stop-opacity:1;" offset="0.382812"/><stop style="stop-color:#7643b0;stop-opacity:1;" offset="0.386719"/><stop style="stop-color:#7643af;stop-opacity:1;" offset="0.390625"/><stop style="stop-color:#7643af;stop-opacity:1;" offset="0.394531"/><stop style="stop-color:#7542ae;stop-opacity:1;" offset="0.398438"/><stop style="stop-color:#7542ad;stop-opacity:1;" offset="0.402344"/><stop style="stop-color:#7442ad;stop-opacity:1;" offset="0.40625"/><stop style="stop-color:#7442ac;stop-opacity:1;" offset="0.410156"/><stop style="stop-color:#7441ac;stop-opacity:1;" offset="0.414062"/><stop style="stop-color:#7341ab;stop-opacity:1;" offset="0.417969"/><stop style="stop-color:#7341ab;stop-opacity:1;" offset="0.421875"/><stop style="stop-color:#7341aa;stop-opacity:1;" offset="0.425781"/><stop style="stop-color:#7240aa;stop-opacity:1;" offset="0.429688"/><stop style="stop-color:#7240a9;stop-opacity:1;" offset="0.433594"/><stop style="stop-color:#7140a9;stop-opacity:1;" offset="0.4375"/><stop style="stop-color:#713fa8;stop-opacity:1;" offset="0.441406"/><stop style="stop-color:#713fa8;stop-opacity:1;" offset="0.445312"/><stop style="stop-color:#703fa7;stop-opacity:1;" offset="0.449219"/><stop style="stop-color:#703fa6;stop-opacity:1;" offset="0.453125"/><stop style="stop-color:#703ea6;stop-opacity:1;" offset="0.457031"/><stop style="stop-color:#6f3ea5;stop-opacity:1;" offset="0.460938"/><stop style="stop-color:#6f3ea5;stop-opacity:1;" offset="0.464844"/><stop style="stop-color:#6e3ea4;stop-opacity:1;" offset="0.46875"/><stop style="stop-color:#6e3da4;stop-opacity:1;" offset="0.472656"/><stop style="stop-color:#6e3da3;stop-opacity:1;" offset="0.476562"/><stop style="stop-color:#6d3da3;stop-opacity:1;" offset="0.480469"/><stop style="stop-color:#6d3da2;stop-opacity:1;" offset="0.484375"/><stop style="stop-color:#6d3ca2;stop-opacity:1;" offset="0.488281"/><stop style="stop-color:#6c3ca1;stop-opacity:1;" offset="0.492188"/><stop style="stop-color:#6c3ca1;stop-opacity:1;" offset="0.496094"/><stop style="stop-color:#6b3ca0;stop-opacity:1;" offset="0.5"/><stop style="stop-color:#6b3b9f;stop-opacity:1;" offset="0.503906"/><stop style="stop-color:#6b3b9f;stop-opacity:1;" offset="0.507812"/><stop style="stop-color:#6a3b9e;stop-opacity:1;" offset="0.511719"/><stop style="stop-color:#6a3a9e;stop-opacity:1;" offset="0.515625"/><stop style="stop-color:#6a3a9d;stop-opacity:1;" offset="0.519531"/><stop style="stop-color:#693a9d;stop-opacity:1;" offset="0.523438"/><stop style="stop-color:#693a9c;stop-opacity:1;" offset="0.527344"/><stop style="stop-color:#69399c;stop-opacity:1;" offset="0.53125"/><stop style="stop-color:#68399b;stop-opacity:1;" offset="0.535156"/><stop style="stop-color:#68399b;stop-opacity:1;" offset="0.539062"/><stop style="stop-color:#67399a;stop-opacity:1;" offset="0.542969"/><stop style="stop-color:#67389a;stop-opacity:1;" offset="0.546875"/><stop style="stop-color:#673899;stop-opacity:1;" offset="0.550781"/><stop style="stop-color:#663898;stop-opacity:1;" offset="0.554688"/><stop style="stop-color:#663898;stop-opacity:1;" offset="0.558594"/><stop style="stop-color:#663797;stop-opacity:1;" offset="0.5625"/><stop style="stop-color:#653797;stop-opacity:1;" offset="0.566406"/><stop style="stop-color:#653796;stop-opacity:1;" offset="0.570312"/><stop style="stop-color:#643796;stop-opacity:1;" offset="0.574219"/><stop style="stop-color:#643695;stop-opacity:1;" offset="0.578125"/><stop style="stop-color:#643695;stop-opacity:1;" offset="0.582031"/><stop style="stop-color:#633694;stop-opacity:1;" offset="0.585938"/><stop style="stop-color:#633694;stop-opacity:1;" offset="0.589844"/><stop style="stop-color:#633593;stop-opacity:1;" offset="0.59375"/><stop style="stop-color:#623593;stop-opacity:1;" offset="0.597656"/><stop style="stop-color:#623592;stop-opacity:1;" offset="0.601562"/><stop style="stop-color:#613491;stop-opacity:1;" offset="0.605469"/><stop style="stop-color:#613491;stop-opacity:1;" offset="0.609375"/><stop style="stop-color:#613490;stop-opacity:1;" offset="0.613281"/><stop style="stop-color:#603490;stop-opacity:1;" offset="0.617188"/><stop style="stop-color:#60338f;stop-opacity:1;" offset="0.621094"/><stop style="stop-color:#60338f;stop-opacity:1;" offset="0.625"/><stop style="stop-color:#5f338e;stop-opacity:1;" offset="0.628906"/><stop style="stop-color:#5f338e;stop-opacity:1;" offset="0.632812"/><stop style="stop-color:#5e328d;stop-opacity:1;" offset="0.636719"/><stop style="stop-color:#5e328d;stop-opacity:1;" offset="0.640625"/><stop style="stop-color:#5e328c;stop-opacity:1;" offset="0.644531"/><stop style="stop-color:#5d328c;stop-opacity:1;" offset="0.648438"/><stop style="stop-color:#5d318b;stop-opacity:1;" offset="0.652344"/><stop style="stop-color:#5d318a;stop-opacity:1;" offset="0.65625"/><stop style="stop-color:#5c318a;stop-opacity:1;" offset="0.660156"/><stop style="stop-color:#5c3189;stop-opacity:1;" offset="0.664062"/><stop style="stop-color:#5c3089;stop-opacity:1;" offset="0.667969"/><stop style="stop-color:#5b3088;stop-opacity:1;" offset="0.671875"/><stop style="stop-color:#5b3088;stop-opacity:1;" offset="0.675781"/><stop style="stop-color:#5a2f87;stop-opacity:1;" offset="0.679688"/><stop style="stop-color:#5a2f87;stop-opacity:1;" offset="0.683594"/><stop style="stop-color:#5a2f86;stop-opacity:1;" offset="0.6875"/><stop style="stop-color:#592f86;stop-opacity:1;" offset="0.691406"/><stop style="stop-color:#592e85;stop-opacity:1;" offset="0.695312"/><stop style="stop-color:#592e85;stop-opacity:1;" offset="0.699219"/><stop style="stop-color:#582e84;stop-opacity:1;" offset="0.703125"/><stop style="stop-color:#582e83;stop-opacity:1;" offset="0.707031"/><stop style="stop-color:#572d83;stop-opacity:1;" offset="0.710938"/><stop style="stop-color:#572d82;stop-opacity:1;" offset="0.714844"/><stop style="stop-color:#572d82;stop-opacity:1;" offset="0.71875"/><stop style="stop-color:#562d81;stop-opacity:1;" offset="0.722656"/><stop style="stop-color:#562c81;stop-opacity:1;" offset="0.726562"/><stop style="stop-color:#562c80;stop-opacity:1;" offset="0.730469"/><stop style="stop-color:#552c80;stop-opacity:1;" offset="0.734375"/><stop style="stop-color:#552c7f;stop-opacity:1;" offset="0.738281"/><stop style="stop-color:#542b7f;stop-opacity:1;" offset="0.742188"/><stop style="stop-color:#542b7e;stop-opacity:1;" offset="0.746094"/><stop style="stop-color:#542b7e;stop-opacity:1;" offset="0.75"/><stop style="stop-color:#532b7d;stop-opacity:1;" offset="0.753906"/><stop style="stop-color:#532a7c;stop-opacity:1;" offset="0.757812"/><stop style="stop-color:#532a7c;stop-opacity:1;" offset="0.761719"/><stop style="stop-color:#522a7b;stop-opacity:1;" offset="0.765625"/><stop style="stop-color:#52297b;stop-opacity:1;" offset="0.769531"/><stop style="stop-color:#51297a;stop-opacity:1;" offset="0.773438"/><stop style="stop-color:#51297a;stop-opacity:1;" offset="0.777344"/><stop style="stop-color:#512979;stop-opacity:1;" offset="0.78125"/><stop style="stop-color:#502879;stop-opacity:1;" offset="0.785156"/><stop style="stop-color:#502878;stop-opacity:1;" offset="0.789062"/><stop style="stop-color:#502878;stop-opacity:1;" offset="0.792969"/><stop style="stop-color:#4f2877;stop-opacity:1;" offset="0.796875"/><stop style="stop-color:#4f2777;stop-opacity:1;" offset="0.800781"/><stop style="stop-color:#4f2776;stop-opacity:1;" offset="0.804688"/><stop style="stop-color:#4e2775;stop-opacity:1;" offset="0.808594"/><stop style="stop-color:#4e2775;stop-opacity:1;" offset="0.8125"/><stop style="stop-color:#4d2674;stop-opacity:1;" offset="0.816406"/><stop style="stop-color:#4d2674;stop-opacity:1;" offset="0.820312"/><stop style="stop-color:#4d2673;stop-opacity:1;" offset="0.824219"/><stop style="stop-color:#4c2673;stop-opacity:1;" offset="0.828125"/><stop style="stop-color:#4c2572;stop-opacity:1;" offset="0.832031"/><stop style="stop-color:#4c2572;stop-opacity:1;" offset="0.835938"/><stop style="stop-color:#4b2571;stop-opacity:1;" offset="0.839844"/><stop style="stop-color:#4b2471;stop-opacity:1;" offset="0.84375"/><stop style="stop-color:#4a2470;stop-opacity:1;" offset="0.847656"/><stop style="stop-color:#4a2470;stop-opacity:1;" offset="0.851562"/><stop style="stop-color:#4a246f;stop-opacity:1;" offset="0.855469"/><stop style="stop-color:#49236e;stop-opacity:1;" offset="0.859375"/><stop style="stop-color:#49236e;stop-opacity:1;" offset="0.863281"/><stop style="stop-color:#49236d;stop-opacity:1;" offset="0.867188"/><stop style="stop-color:#48236d;stop-opacity:1;" offset="0.871094"/><stop style="stop-color:#48226c;stop-opacity:1;" offset="0.875"/><stop style="stop-color:#47226c;stop-opacity:1;" offset="0.878906"/><stop style="stop-color:#47226b;stop-opacity:1;" offset="0.882812"/><stop style="stop-color:#47226b;stop-opacity:1;" offset="0.886719"/><stop style="stop-color:#46216a;stop-opacity:1;" offset="0.890625"/><stop style="stop-color:#46216a;stop-opacity:1;" offset="0.894531"/><stop style="stop-color:#462169;stop-opacity:1;" offset="0.898438"/><stop style="stop-color:#452169;stop-opacity:1;" offset="0.902344"/><stop style="stop-color:#452068;stop-opacity:1;" offset="0.90625"/><stop style="stop-color:#442067;stop-opacity:1;" offset="0.910156"/><stop style="stop-color:#442067;stop-opacity:1;" offset="0.914062"/><stop style="stop-color:#442066;stop-opacity:1;" offset="0.917969"/><stop style="stop-color:#431f66;stop-opacity:1;" offset="0.921875"/><stop style="stop-color:#431f65;stop-opacity:1;" offset="0.925781"/><stop style="stop-color:#431f65;stop-opacity:1;" offset="0.929688"/><stop style="stop-color:#421e64;stop-opacity:1;" offset="0.933594"/><stop style="stop-color:#421e64;stop-opacity:1;" offset="0.9375"/><stop style="stop-color:#411e63;stop-opacity:1;" offset="0.941406"/><stop style="stop-color:#411e63;stop-opacity:1;" offset="0.945312"/><stop style="stop-color:#411d62;stop-opacity:1;" offset="0.949219"/><stop style="stop-color:#401d62;stop-opacity:1;" offset="0.953125"/><stop style="stop-color:#401d61;stop-opacity:1;" offset="0.957031"/><stop style="stop-color:#401d60;stop-opacity:1;" offset="0.960938"/><stop style="stop-color:#3f1c60;stop-opacity:1;" offset="0.964844"/><stop style="stop-color:#3f1c5f;stop-opacity:1;" offset="0.96875"/><stop style="stop-color:#3f1c5f;stop-opacity:1;" offset="0.972656"/><stop style="stop-color:#3e1c5e;stop-opacity:1;" offset="0.976562"/><stop style="stop-color:#3e1b5e;stop-opacity:1;" offset="0.980469"/><stop style="stop-color:#3d1b5d;stop-opacity:1;" offset="0.984375"/><stop style="stop-color:#3d1b5d;stop-opacity:1;" offset="0.988281"/><stop style="stop-color:#3d1b5c;stop-opacity:1;" offset="0.992188"/><stop style="stop-color:#3c1a5c;stop-opacity:1;" offset="0.996094"/><stop style="stop-color:#3c1a5b;stop-opacity:1;" offset="1"/></linearGradient><clipPath id="caa85fdd21"><path d="M 40.027344 26.042969 L 319.777344 26.042969 L 319.777344 118 L 40.027344 118 Z M 40.027344 26.042969 "/></clipPath><clipPath id="e20da472b3"><path d="M 67.007812 26.042969 L 292.796875 26.042969 C 299.953125 26.042969 306.816406 28.886719 311.875 33.949219 C 316.933594 39.007812 319.777344 45.871094 319.777344 53.027344 L 319.777344 90.910156 C 319.777344 98.066406 316.933594 104.929688 311.875 109.988281 C 306.816406 115.050781 299.953125 117.890625 292.796875 117.890625 L 67.007812 117.890625 C 59.851562 117.890625 52.992188 115.050781 47.929688 109.988281 C 42.871094 104.929688 40.027344 98.066406 40.027344 90.910156 L 40.027344 53.027344 C 40.027344 45.871094 42.871094 39.007812 47.929688 33.949219 C 52.992188 28.886719 59.851562 26.042969 67.007812 26.042969 Z M 67.007812 26.042969 "/></clipPath></defs><g id="8016e9a9a8"><rect x="0" width="360" y="0" height="143.999998" style="fill:#ffffff;fill-opacity:1;stroke:none;"/><rect x="0" width="360" y="0" height="143.999998" style="fill:#ffffff;fill-opacity:1;stroke:none;"/><rect x="0" width="360" y="0" height="143.999998" style="fill:url(#ef3f7bdb76);stroke:none;"/><g clip-rule="nonzero" clip-path="url(#caa85fdd21)"><g clip-rule="nonzero" clip-path="url(#e20da472b3)"><path style="fill:none;stroke-width:28;stroke-linecap:butt;stroke-linejoin:miter;stroke:#f5f5f5;stroke-opacity:1;stroke-miterlimit:4;" d="M 35.99739 -0.00259442 L 337.251239 -0.00259442 C 346.799301 -0.00259442 355.956475 3.791613 362.705788 10.546137 C 369.4551 17.295449 373.249307 26.452624 373.249307 36.000686 L 373.249307 86.544955 C 373.249307 96.093016 369.4551 105.250191 362.705788 111.999503 C 355.956475 118.754027 346.799301 122.543023 337.251239 122.543023 L 35.99739 122.543023 C 26.449328 122.543023 17.297365 118.754027 10.542841 111.999503 C 3.793529 105.250191 -0.000678604 96.093016 -0.000678604 86.544955 L -0.000678604 36.000686 C -0.000678604 26.452624 3.793529 17.295449 10.542841 10.546137 C 17.297365 3.791613 26.449328 -0.00259442 35.99739 -0.00259442 Z M 35.99739 -0.00259442 " transform="matrix(0.749498,0,0,0.749498,40.027852,26.044913)"/></g></g><path style="fill:none;stroke-width:14;stroke-linecap:butt;stroke-linejoin:miter;stroke:#f5f5f5;stroke-opacity:1;stroke-miterlimit:4;" d="M 0.00116235 7.001859 L 112.938669 7.001859 " transform="matrix(0.75,0.000000000000000189,-0.000000000000000189,0.75,-10.504778,107.455637)"/><g style="fill:#ffa500;fill-opacity:1;"><g transform="translate(76.778367, 86.764312)"><path style="stroke:none" d="M 29.34375 0 L 27.796875 -19.34375 L 27.609375 -19.34375 L 20.921875 -0.203125 L 16.484375 -0.203125 L 9.8125 -19.34375 L 9.609375 -19.34375 L 8.0625 0 L 0.625 0 L 3.5625 -32.625 L 11.46875 -32.625 L 18.703125 -13.796875 L 25.9375 -32.625 L 33.859375 -32.625 L 36.78125 0 Z M 29.34375 0 "/></g></g><g style="fill:#ffa500;fill-opacity:1;"><g transform="translate(113.937797, 86.764312)"><path style="stroke:none" d="M 17.75 -20.28125 L 25.828125 -20.28125 L 9.890625 10.28125 L 1.8125 10.28125 L 8.8125 -3.15625 L -0.796875 -20.28125 L 7.28125 -20.28125 L 12.9375 -9.890625 Z M 17.75 -20.28125 "/></g></g><g style="fill:#ffa500;fill-opacity:1;"><g transform="translate(138.961156, 86.764312)"><path style="stroke:none" d="M 2.375 -32.625 L 14.28125 -32.625 C 17.601562 -32.625 20.289062 -31.765625 22.34375 -30.046875 C 24.394531 -28.335938 25.421875 -25.847656 25.421875 -22.578125 C 25.421875 -19.304688 24.378906 -16.738281 22.296875 -14.875 C 20.222656 -13.019531 17.550781 -12.09375 14.28125 -12.09375 L 9.8125 -12.09375 L 9.8125 0 L 2.375 0 Z M 9.8125 -18.03125 L 11.90625 -18.03125 C 13.5625 -18.03125 14.921875 -18.363281 15.984375 -19.03125 C 17.054688 -19.707031 17.59375 -20.8125 17.59375 -22.34375 C 17.59375 -23.894531 17.054688 -25.003906 15.984375 -25.671875 C 14.921875 -26.347656 13.5625 -26.6875 11.90625 -26.6875 L 9.8125 -26.6875 Z M 9.8125 -18.03125 "/></g></g><g style="fill:#ffa500;fill-opacity:1;"><g transform="translate(165.289053, 86.764312)"><path style="stroke:none" d="M 9.8125 -32.625 L 9.8125 0 L 2.375 0 L 2.375 -32.625 Z M 9.8125 -32.625 "/></g></g><g style="fill:#ffa500;fill-opacity:1;"><g transform="translate(177.464714, 86.764312)"><path style="stroke:none" d="M 2.375 -32.625 L 11.828125 -32.625 C 16.359375 -32.625 20.234375 -31.070312 23.453125 -27.96875 C 26.671875 -24.875 28.28125 -20.992188 28.28125 -16.328125 C 28.28125 -11.640625 26.675781 -7.742188 23.46875 -4.640625 C 20.269531 -1.546875 16.390625 0 11.828125 0 L 2.375 0 Z M 9.8125 -6.640625 L 10.953125 -6.640625 C 13.671875 -6.640625 15.890625 -7.554688 17.609375 -9.390625 C 19.335938 -11.222656 20.21875 -13.523438 20.25 -16.296875 C 20.25 -19.066406 19.382812 -21.375 17.65625 -23.21875 C 15.925781 -25.0625 13.691406 -25.984375 10.953125 -25.984375 L 9.8125 -25.984375 Z M 9.8125 -6.640625 "/></g></g><g style="fill:#ffa500;fill-opacity:1;"><g transform="translate(206.63887, 86.764312)"><path style="stroke:none" d="M 6.875 -8.46875 C 8.144531 -8.46875 9.21875 -8.023438 10.09375 -7.140625 C 10.976562 -6.253906 11.421875 -5.179688 11.421875 -3.921875 C 11.421875 -2.679688 10.976562 -1.617188 10.09375 -0.734375 C 9.21875 0.148438 8.144531 0.59375 6.875 0.59375 C 5.632812 0.59375 4.570312 0.148438 3.6875 -0.734375 C 2.8125 -1.617188 2.375 -2.679688 2.375 -3.921875 C 2.375 -5.179688 2.8125 -6.253906 3.6875 -7.140625 C 4.570312 -8.023438 5.632812 -8.46875 6.875 -8.46875 Z M 6.875 -8.46875 "/></g></g><g style="fill:#ffa500;fill-opacity:1;"><g transform="translate(220.43532, 86.764312)"><path style="stroke:none" d="M 2.375 0 L 2.375 -20.28125 L 9.375 -20.28125 L 9.375 -18.15625 L 9.453125 -18.15625 C 11.273438 -19.96875 13.210938 -20.875 15.265625 -20.875 C 16.742188 -20.875 18.128906 -20.570312 19.421875 -19.96875 C 20.710938 -19.363281 21.6875 -18.425781 22.34375 -17.15625 C 24.394531 -19.632812 26.632812 -20.875 29.0625 -20.875 C 31.226562 -20.875 33.085938 -20.269531 34.640625 -19.0625 C 36.191406 -17.851562 36.96875 -15.953125 36.96875 -13.359375 L 36.96875 0 L 29.984375 0 L 29.984375 -11.46875 C 29.984375 -12.550781 29.6875 -13.453125 29.09375 -14.171875 C 28.5 -14.898438 27.609375 -15.265625 26.421875 -15.265625 C 25.390625 -15.265625 24.601562 -14.953125 24.0625 -14.328125 C 23.519531 -13.710938 23.222656 -12.96875 23.171875 -12.09375 L 23.171875 0 L 16.171875 0 L 16.171875 -11.46875 C 16.171875 -12.550781 15.875 -13.453125 15.28125 -14.171875 C 14.6875 -14.898438 13.796875 -15.265625 12.609375 -15.265625 C 11.535156 -15.265625 10.726562 -14.925781 10.1875 -14.25 C 9.644531 -13.582031 9.375 -12.785156 9.375 -11.859375 L 9.375 0 Z M 2.375 0 "/></g></g><g style="fill:#ffa500;fill-opacity:1;"><g transform="translate(259.373721, 86.764312)"><path style="stroke:none" d="M 22.890625 -9.171875 L 8.1875 -9.171875 C 8.1875 -7.753906 8.644531 -6.703125 9.5625 -6.015625 C 10.488281 -5.328125 11.492188 -4.984375 12.578125 -4.984375 C 13.710938 -4.984375 14.609375 -5.132812 15.265625 -5.4375 C 15.921875 -5.738281 16.671875 -6.335938 17.515625 -7.234375 L 22.578125 -4.703125 C 20.472656 -1.171875 16.96875 0.59375 12.0625 0.59375 C 9 0.59375 6.375 -0.453125 4.1875 -2.546875 C 2 -4.640625 0.90625 -7.160156 0.90625 -10.109375 C 0.90625 -13.066406 2 -15.597656 4.1875 -17.703125 C 6.375 -19.816406 9 -20.875 12.0625 -20.875 C 15.28125 -20.875 17.894531 -19.941406 19.90625 -18.078125 C 21.925781 -16.222656 22.9375 -13.570312 22.9375 -10.125 C 22.9375 -9.644531 22.921875 -9.328125 22.890625 -9.171875 Z M 8.390625 -13.046875 L 16.09375 -13.046875 C 15.9375 -14.097656 15.519531 -14.90625 14.84375 -15.46875 C 14.175781 -16.039062 13.316406 -16.328125 12.265625 -16.328125 C 11.097656 -16.328125 10.171875 -16.023438 9.484375 -15.421875 C 8.804688 -14.816406 8.441406 -14.023438 8.390625 -13.046875 Z M 8.390625 -13.046875 "/></g></g><path style="fill:none;stroke-width:14;stroke-linecap:butt;stroke-linejoin:miter;stroke:#f5f5f5;stroke-opacity:1;stroke-miterlimit:4;" d="M 0.000120054 7.000308 L 112.937627 7.000308 " transform="matrix(0.75,0.000000000000000189,-0.000000000000000189,0.75,-34.804778,76.12477)"/><path style="fill:none;stroke-width:14;stroke-linecap:butt;stroke-linejoin:miter;stroke:#f5f5f5;stroke-opacity:1;stroke-miterlimit:4;" d="M 0.000625873 7.001852 L 112.938133 7.001852 " transform="matrix(-0.75,0,0,-0.75,370.504376,36.544358)"/><path style="fill:none;stroke-width:14;stroke-linecap:butt;stroke-linejoin:miter;stroke:#f5f5f5;stroke-opacity:1;stroke-miterlimit:4;" d="M -0.000456094 7.000302 L 112.937051 7.000302 " transform="matrix(-0.75,-0.000000001309,0.000000001309,-0.75,394.804345,67.875226)"/></g></svg>