<svg xmlns="http://www.w3.org/2000/svg" xmlns:xlink="http://www.w3.org/1999/xlink" width="240" zoomAndPan="magnify" viewBox="0 0 180 72" height="96" preserveAspectRatio="xMidYMid meet" version="1.2"><defs><linearGradient x1="0.000000000000075791" gradientTransform="matrix(0.28125,0,0,0.28125,-0.000000000000021316,0.000002)" y1="128" x2="639.999973" gradientUnits="userSpaceOnUse" y2="128" id="cae312ca9c"><stop style="stop-color:#9b5de5;stop-opacity:1;" offset="0"/><stop style="stop-color:#9b5de4;stop-opacity:1;" offset="0.00390625"/><stop style="stop-color:#9a5de4;stop-opacity:1;" offset="0.0078125"/><stop style="stop-color:#9a5ce3;stop-opacity:1;" offset="0.0117188"/><stop style="stop-color:#9a5ce3;stop-opacity:1;" offset="0.015625"/><stop style="stop-color:#995ce2;stop-opacity:1;" offset="0.0195312"/><stop style="stop-color:#995ce2;stop-opacity:1;" offset="0.0234375"/><stop style="stop-color:#985be1;stop-opacity:1;" offset="0.0273438"/><stop style="stop-color:#985be1;stop-opacity:1;" offset="0.03125"/><stop style="stop-color:#985be0;stop-opacity:1;" offset="0.0351562"/><stop style="stop-color:#975ae0;stop-opacity:1;" offset="0.0390625"/><stop style="stop-color:#975adf;stop-opacity:1;" offset="0.0429688"/><stop style="stop-color:#975adf;stop-opacity:1;" offset="0.046875"/><stop style="stop-color:#965ade;stop-opacity:1;" offset="0.0507812"/><stop style="stop-color:#9659dd;stop-opacity:1;" offset="0.0546875"/><stop style="stop-color:#9559dd;stop-opacity:1;" offset="0.0585938"/><stop style="stop-color:#9559dc;stop-opacity:1;" offset="0.0625"/><stop style="stop-color:#9559dc;stop-opacity:1;" offset="0.0664062"/><stop style="stop-color:#9458db;stop-opacity:1;" offset="0.0703125"/><stop style="stop-color:#9458db;stop-opacity:1;" offset="0.0742187"/><stop style="stop-color:#9458da;stop-opacity:1;" offset="0.078125"/><stop style="stop-color:#9358da;stop-opacity:1;" offset="0.0820312"/><stop style="stop-color:#9357d9;stop-opacity:1;" offset="0.0859375"/><stop style="stop-color:#9257d9;stop-opacity:1;" offset="0.0898437"/><stop style="stop-color:#9257d8;stop-opacity:1;" offset="0.09375"/><stop style="stop-color:#9257d8;stop-opacity:1;" offset="0.0976562"/><stop style="stop-color:#9156d7;stop-opacity:1;" offset="0.101562"/><stop style="stop-color:#9156d6;stop-opacity:1;" offset="0.105469"/><stop style="stop-color:#9156d6;stop-opacity:1;" offset="0.109375"/><stop style="stop-color:#9055d5;stop-opacity:1;" offset="0.113281"/><stop style="stop-color:#9055d5;stop-opacity:1;" offset="0.117187"/><stop style="stop-color:#9055d4;stop-opacity:1;" offset="0.121094"/><stop style="stop-color:#8f55d4;stop-opacity:1;" offset="0.125"/><stop style="stop-color:#8f54d3;stop-opacity:1;" offset="0.128906"/><stop style="stop-color:#8e54d3;stop-opacity:1;" offset="0.132812"/><stop style="stop-color:#8e54d2;stop-opacity:1;" offset="0.136719"/><stop style="stop-color:#8e54d2;stop-opacity:1;" offset="0.140625"/><stop style="stop-color:#8d53d1;stop-opacity:1;" offset="0.144531"/><stop style="stop-color:#8d53d1;stop-opacity:1;" offset="0.148438"/><stop style="stop-color:#8d53d0;stop-opacity:1;" offset="0.152344"/><stop style="stop-color:#8c53cf;stop-opacity:1;" offset="0.15625"/><stop style="stop-color:#8c52cf;stop-opacity:1;" offset="0.160156"/><stop style="stop-color:#8b52ce;stop-opacity:1;" offset="0.164062"/><stop style="stop-color:#8b52ce;stop-opacity:1;" offset="0.167969"/><stop style="stop-color:#8b52cd;stop-opacity:1;" offset="0.171875"/><stop style="stop-color:#8a51cd;stop-opacity:1;" offset="0.175781"/><stop style="stop-color:#8a51cc;stop-opacity:1;" offset="0.179688"/><stop style="stop-color:#8a51cc;stop-opacity:1;" offset="0.183594"/><stop style="stop-color:#8950cb;stop-opacity:1;" offset="0.1875"/><stop style="stop-color:#8950cb;stop-opacity:1;" offset="0.191406"/><stop style="stop-color:#8850ca;stop-opacity:1;" offset="0.195312"/><stop style="stop-color:#8850ca;stop-opacity:1;" offset="0.199219"/><stop style="stop-color:#884fc9;stop-opacity:1;" offset="0.203125"/><stop style="stop-color:#874fc8;stop-opacity:1;" offset="0.207031"/><stop style="stop-color:#874fc8;stop-opacity:1;" offset="0.210938"/><stop style="stop-color:#874fc7;stop-opacity:1;" offset="0.214844"/><stop style="stop-color:#864ec7;stop-opacity:1;" offset="0.21875"/><stop style="stop-color:#864ec6;stop-opacity:1;" offset="0.222656"/><stop style="stop-color:#854ec6;stop-opacity:1;" offset="0.226562"/><stop style="stop-color:#854ec5;stop-opacity:1;" offset="0.230469"/><stop style="stop-color:#854dc5;stop-opacity:1;" offset="0.234375"/><stop style="stop-color:#844dc4;stop-opacity:1;" offset="0.238281"/><stop style="stop-color:#844dc4;stop-opacity:1;" offset="0.242188"/><stop style="stop-color:#844dc3;stop-opacity:1;" offset="0.246094"/><stop style="stop-color:#834cc2;stop-opacity:1;" offset="0.25"/><stop style="stop-color:#834cc2;stop-opacity:1;" offset="0.253906"/><stop style="stop-color:#834cc1;stop-opacity:1;" offset="0.257812"/><stop style="stop-color:#824cc1;stop-opacity:1;" offset="0.261719"/><stop style="stop-color:#824bc0;stop-opacity:1;" offset="0.265625"/><stop style="stop-color:#814bc0;stop-opacity:1;" offset="0.269531"/><stop style="stop-color:#814bbf;stop-opacity:1;" offset="0.273438"/><stop style="stop-color:#814abf;stop-opacity:1;" offset="0.277344"/><stop style="stop-color:#804abe;stop-opacity:1;" offset="0.28125"/><stop style="stop-color:#804abe;stop-opacity:1;" offset="0.285156"/><stop style="stop-color:#804abd;stop-opacity:1;" offset="0.289062"/><stop style="stop-color:#7f49bd;stop-opacity:1;" offset="0.292969"/><stop style="stop-color:#7f49bc;stop-opacity:1;" offset="0.296875"/><stop style="stop-color:#7e49bb;stop-opacity:1;" offset="0.300781"/><stop style="stop-color:#7e49bb;stop-opacity:1;" offset="0.304688"/><stop style="stop-color:#7e48ba;stop-opacity:1;" offset="0.308594"/><stop style="stop-color:#7d48ba;stop-opacity:1;" offset="0.3125"/><stop style="stop-color:#7d48b9;stop-opacity:1;" offset="0.316406"/><stop style="stop-color:#7d48b9;stop-opacity:1;" offset="0.320312"/><stop style="stop-color:#7c47b8;stop-opacity:1;" offset="0.324219"/><stop style="stop-color:#7c47b8;stop-opacity:1;" offset="0.328125"/><stop style="stop-color:#7b47b7;stop-opacity:1;" offset="0.332031"/><stop style="stop-color:#7b47b7;stop-opacity:1;" offset="0.335938"/><stop style="stop-color:#7b46b6;stop-opacity:1;" offset="0.339844"/><stop style="stop-color:#7a46b6;stop-opacity:1;" offset="0.34375"/><stop style="stop-color:#7a46b5;stop-opacity:1;" offset="0.347656"/><stop style="stop-color:#7a45b4;stop-opacity:1;" offset="0.351562"/><stop style="stop-color:#7945b4;stop-opacity:1;" offset="0.355469"/><stop style="stop-color:#7945b3;stop-opacity:1;" offset="0.359375"/><stop style="stop-color:#7845b3;stop-opacity:1;" offset="0.363281"/><stop style="stop-color:#7844b2;stop-opacity:1;" offset="0.367188"/><stop style="stop-color:#7844b2;stop-opacity:1;" offset="0.371094"/><stop style="stop-color:#7744b1;stop-opacity:1;" offset="0.375"/><stop style="stop-color:#7744b1;stop-opacity:1;" offset="0.378906"/><stop style="stop-color:#7743b0;stop-opacity:1;" offset="0.382812"/><stop style="stop-color:#7643b0;stop-opacity:1;" offset="0.386719"/><stop style="stop-color:#7643af;stop-opacity:1;" offset="0.390625"/><stop style="stop-color:#7643af;stop-opacity:1;" offset="0.394531"/><stop style="stop-color:#7542ae;stop-opacity:1;" offset="0.398438"/><stop style="stop-color:#7542ad;stop-opacity:1;" offset="0.402344"/><stop style="stop-color:#7442ad;stop-opacity:1;" offset="0.40625"/><stop style="stop-color:#7442ac;stop-opacity:1;" offset="0.410156"/><stop style="stop-color:#7441ac;stop-opacity:1;" offset="0.414062"/><stop style="stop-color:#7341ab;stop-opacity:1;" offset="0.417969"/><stop style="stop-color:#7341ab;stop-opacity:1;" offset="0.421875"/><stop style="stop-color:#7341aa;stop-opacity:1;" offset="0.425781"/><stop style="stop-color:#7240aa;stop-opacity:1;" offset="0.429688"/><stop style="stop-color:#7240a9;stop-opacity:1;" offset="0.433594"/><stop style="stop-color:#7140a9;stop-opacity:1;" offset="0.4375"/><stop style="stop-color:#713fa8;stop-opacity:1;" offset="0.441406"/><stop style="stop-color:#713fa8;stop-opacity:1;" offset="0.445312"/><stop style="stop-color:#703fa7;stop-opacity:1;" offset="0.449219"/><stop style="stop-color:#703fa6;stop-opacity:1;" offset="0.453125"/><stop style="stop-color:#703ea6;stop-opacity:1;" offset="0.457031"/><stop style="stop-color:#6f3ea5;stop-opacity:1;" offset="0.460938"/><stop style="stop-color:#6f3ea5;stop-opacity:1;" offset="0.464844"/><stop style="stop-color:#6e3ea4;stop-opacity:1;" offset="0.46875"/><stop style="stop-color:#6e3da4;stop-opacity:1;" offset="0.472656"/><stop style="stop-color:#6e3da3;stop-opacity:1;" offset="0.476562"/><stop style="stop-color:#6d3da3;stop-opacity:1;" offset="0.480469"/><stop style="stop-color:#6d3da2;stop-opacity:1;" offset="0.484375"/><stop style="stop-color:#6d3ca2;stop-opacity:1;" offset="0.488281"/><stop style="stop-color:#6c3ca1;stop-opacity:1;" offset="0.492188"/><stop style="stop-color:#6c3ca1;stop-opacity:1;" offset="0.496094"/><stop style="stop-color:#6b3ca0;stop-opacity:1;" offset="0.5"/><stop style="stop-color:#6b3b9f;stop-opacity:1;" offset="0.503906"/><stop style="stop-color:#6b3b9f;stop-opacity:1;" offset="0.507812"/><stop style="stop-color:#6a3b9e;stop-opacity:1;" offset="0.511719"/><stop style="stop-color:#6a3a9e;stop-opacity:1;" offset="0.515625"/><stop style="stop-color:#6a3a9d;stop-opacity:1;" offset="0.519531"/><stop style="stop-color:#693a9d;stop-opacity:1;" offset="0.523438"/><stop style="stop-color:#693a9c;stop-opacity:1;" offset="0.527344"/><stop style="stop-color:#69399c;stop-opacity:1;" offset="0.53125"/><stop style="stop-color:#68399b;stop-opacity:1;" offset="0.535156"/><stop style="stop-color:#68399b;stop-opacity:1;" offset="0.539062"/><stop style="stop-color:#67399a;stop-opacity:1;" offset="0.542969"/><stop style="stop-color:#67389a;stop-opacity:1;" offset="0.546875"/><stop style="stop-color:#673899;stop-opacity:1;" offset="0.550781"/><stop style="stop-color:#663898;stop-opacity:1;" offset="0.554688"/><stop style="stop-color:#663898;stop-opacity:1;" offset="0.558594"/><stop style="stop-color:#663797;stop-opacity:1;" offset="0.5625"/><stop style="stop-color:#653797;stop-opacity:1;" offset="0.566406"/><stop style="stop-color:#653796;stop-opacity:1;" offset="0.570312"/><stop style="stop-color:#643796;stop-opacity:1;" offset="0.574219"/><stop style="stop-color:#643695;stop-opacity:1;" offset="0.578125"/><stop style="stop-color:#643695;stop-opacity:1;" offset="0.582031"/><stop style="stop-color:#633694;stop-opacity:1;" offset="0.585938"/><stop style="stop-color:#633694;stop-opacity:1;" offset="0.589844"/><stop style="stop-color:#633593;stop-opacity:1;" offset="0.59375"/><stop style="stop-color:#623593;stop-opacity:1;" offset="0.597656"/><stop style="stop-color:#623592;stop-opacity:1;" offset="0.601562"/><stop style="stop-color:#613491;stop-opacity:1;" offset="0.605469"/><stop style="stop-color:#613491;stop-opacity:1;" offset="0.609375"/><stop style="stop-color:#613490;stop-opacity:1;" offset="0.613281"/><stop style="stop-color:#603490;stop-opacity:1;" offset="0.617188"/><stop style="stop-color:#60338f;stop-opacity:1;" offset="0.621094"/><stop style="stop-color:#60338f;stop-opacity:1;" offset="0.625"/><stop style="stop-color:#5f338e;stop-opacity:1;" offset="0.628906"/><stop style="stop-color:#5f338e;stop-opacity:1;" offset="0.632812"/><stop style="stop-color:#5e328d;stop-opacity:1;" offset="0.636719"/><stop style="stop-color:#5e328d;stop-opacity:1;" offset="0.640625"/><stop style="stop-color:#5e328c;stop-opacity:1;" offset="0.644531"/><stop style="stop-color:#5d328c;stop-opacity:1;" offset="0.648438"/><stop style="stop-color:#5d318b;stop-opacity:1;" offset="0.652344"/><stop style="stop-color:#5d318a;stop-opacity:1;" offset="0.65625"/><stop style="stop-color:#5c318a;stop-opacity:1;" offset="0.660156"/><stop style="stop-color:#5c3189;stop-opacity:1;" offset="0.664062"/><stop style="stop-color:#5c3089;stop-opacity:1;" offset="0.667969"/><stop style="stop-color:#5b3088;stop-opacity:1;" offset="0.671875"/><stop style="stop-color:#5b3088;stop-opacity:1;" offset="0.675781"/><stop style="stop-color:#5a2f87;stop-opacity:1;" offset="0.679688"/><stop style="stop-color:#5a2f87;stop-opacity:1;" offset="0.683594"/><stop style="stop-color:#5a2f86;stop-opacity:1;" offset="0.6875"/><stop style="stop-color:#592f86;stop-opacity:1;" offset="0.691406"/><stop style="stop-color:#592e85;stop-opacity:1;" offset="0.695312"/><stop style="stop-color:#592e85;stop-opacity:1;" offset="0.699219"/><stop style="stop-color:#582e84;stop-opacity:1;" offset="0.703125"/><stop style="stop-color:#582e83;stop-opacity:1;" offset="0.707031"/><stop style="stop-color:#572d83;stop-opacity:1;" offset="0.710938"/><stop style="stop-color:#572d82;stop-opacity:1;" offset="0.714844"/><stop style="stop-color:#572d82;stop-opacity:1;" offset="0.71875"/><stop style="stop-color:#562d81;stop-opacity:1;" offset="0.722656"/><stop style="stop-color:#562c81;stop-opacity:1;" offset="0.726562"/><stop style="stop-color:#562c80;stop-opacity:1;" offset="0.730469"/><stop style="stop-color:#552c80;stop-opacity:1;" offset="0.734375"/><stop style="stop-color:#552c7f;stop-opacity:1;" offset="0.738281"/><stop style="stop-color:#542b7f;stop-opacity:1;" offset="0.742188"/><stop style="stop-color:#542b7e;stop-opacity:1;" offset="0.746094"/><stop style="stop-color:#542b7e;stop-opacity:1;" offset="0.75"/><stop style="stop-color:#532b7d;stop-opacity:1;" offset="0.753906"/><stop style="stop-color:#532a7c;stop-opacity:1;" offset="0.757812"/><stop style="stop-color:#532a7c;stop-opacity:1;" offset="0.761719"/><stop style="stop-color:#522a7b;stop-opacity:1;" offset="0.765625"/><stop style="stop-color:#52297b;stop-opacity:1;" offset="0.769531"/><stop style="stop-color:#51297a;stop-opacity:1;" offset="0.773438"/><stop style="stop-color:#51297a;stop-opacity:1;" offset="0.777344"/><stop style="stop-color:#512979;stop-opacity:1;" offset="0.78125"/><stop style="stop-color:#502879;stop-opacity:1;" offset="0.785156"/><stop style="stop-color:#502878;stop-opacity:1;" offset="0.789062"/><stop style="stop-color:#502878;stop-opacity:1;" offset="0.792969"/><stop style="stop-color:#4f2877;stop-opacity:1;" offset="0.796875"/><stop style="stop-color:#4f2777;stop-opacity:1;" offset="0.800781"/><stop style="stop-color:#4f2776;stop-opacity:1;" offset="0.804688"/><stop style="stop-color:#4e2775;stop-opacity:1;" offset="0.808594"/><stop style="stop-color:#4e2775;stop-opacity:1;" offset="0.8125"/><stop style="stop-color:#4d2674;stop-opacity:1;" offset="0.816406"/><stop style="stop-color:#4d2674;stop-opacity:1;" offset="0.820312"/><stop style="stop-color:#4d2673;stop-opacity:1;" offset="0.824219"/><stop style="stop-color:#4c2673;stop-opacity:1;" offset="0.828125"/><stop style="stop-color:#4c2572;stop-opacity:1;" offset="0.832031"/><stop style="stop-color:#4c2572;stop-opacity:1;" offset="0.835938"/><stop style="stop-color:#4b2571;stop-opacity:1;" offset="0.839844"/><stop style="stop-color:#4b2471;stop-opacity:1;" offset="0.84375"/><stop style="stop-color:#4a2470;stop-opacity:1;" offset="0.847656"/><stop style="stop-color:#4a2470;stop-opacity:1;" offset="0.851562"/><stop style="stop-color:#4a246f;stop-opacity:1;" offset="0.855469"/><stop style="stop-color:#49236e;stop-opacity:1;" offset="0.859375"/><stop style="stop-color:#49236e;stop-opacity:1;" offset="0.863281"/><stop style="stop-color:#49236d;stop-opacity:1;" offset="0.867188"/><stop style="stop-color:#48236d;stop-opacity:1;" offset="0.871094"/><stop style="stop-color:#48226c;stop-opacity:1;" offset="0.875"/><stop style="stop-color:#47226c;stop-opacity:1;" offset="0.878906"/><stop style="stop-color:#47226b;stop-opacity:1;" offset="0.882812"/><stop style="stop-color:#47226b;stop-opacity:1;" offset="0.886719"/><stop style="stop-color:#46216a;stop-opacity:1;" offset="0.890625"/><stop style="stop-color:#46216a;stop-opacity:1;" offset="0.894531"/><stop style="stop-color:#462169;stop-opacity:1;" offset="0.898438"/><stop style="stop-color:#452169;stop-opacity:1;" offset="0.902344"/><stop style="stop-color:#452068;stop-opacity:1;" offset="0.90625"/><stop style="stop-color:#442067;stop-opacity:1;" offset="0.910156"/><stop style="stop-color:#442067;stop-opacity:1;" offset="0.914062"/><stop style="stop-color:#442066;stop-opacity:1;" offset="0.917969"/><stop style="stop-color:#431f66;stop-opacity:1;" offset="0.921875"/><stop style="stop-color:#431f65;stop-opacity:1;" offset="0.925781"/><stop style="stop-color:#431f65;stop-opacity:1;" offset="0.929688"/><stop style="stop-color:#421e64;stop-opacity:1;" offset="0.933594"/><stop style="stop-color:#421e64;stop-opacity:1;" offset="0.9375"/><stop style="stop-color:#411e63;stop-opacity:1;" offset="0.941406"/><stop style="stop-color:#411e63;stop-opacity:1;" offset="0.945312"/><stop style="stop-color:#411d62;stop-opacity:1;" offset="0.949219"/><stop style="stop-color:#401d62;stop-opacity:1;" offset="0.953125"/><stop style="stop-color:#401d61;stop-opacity:1;" offset="0.957031"/><stop style="stop-color:#401d60;stop-opacity:1;" offset="0.960938"/><stop style="stop-color:#3f1c60;stop-opacity:1;" offset="0.964844"/><stop style="stop-color:#3f1c5f;stop-opacity:1;" offset="0.96875"/><stop style="stop-color:#3f1c5f;stop-opacity:1;" offset="0.972656"/><stop style="stop-color:#3e1c5e;stop-opacity:1;" offset="0.976562"/><stop style="stop-color:#3e1b5e;stop-opacity:1;" offset="0.980469"/><stop style="stop-color:#3d1b5d;stop-opacity:1;" offset="0.984375"/><stop style="stop-color:#3d1b5d;stop-opacity:1;" offset="0.988281"/><stop style="stop-color:#3d1b5c;stop-opacity:1;" offset="0.992188"/><stop style="stop-color:#3c1a5c;stop-opacity:1;" offset="0.996094"/><stop style="stop-color:#3c1a5b;stop-opacity:1;" offset="1"/></linearGradient><clipPath id="65fc3c213e"><path d="M 20.023438 13.023438 L 160.265625 13.023438 L 160.265625 58.773438 L 20.023438 58.773438 Z M 20.023438 13.023438 "/></clipPath><clipPath id="041cc2d327"><path d="M 33.546875 13.023438 L 146.730469 13.023438 C 150.316406 13.023438 153.757812 14.4375 156.292969 16.957031 C 158.832031 19.480469 160.253906 22.898438 160.253906 26.460938 L 160.253906 45.332031 C 160.253906 48.898438 158.832031 52.316406 156.292969 54.835938 C 153.757812 57.355469 150.316406 58.773438 146.730469 58.773438 L 33.546875 58.773438 C 29.960938 58.773438 26.519531 57.355469 23.984375 54.835938 C 21.445312 52.316406 20.023438 48.898438 20.023438 45.332031 L 20.023438 26.460938 C 20.023438 22.898438 21.445312 19.480469 23.984375 16.957031 C 26.519531 14.4375 29.960938 13.023438 33.546875 13.023438 Z M 33.546875 13.023438 "/></clipPath></defs><g id="0d8ecd0349"><rect x="0" width="180" y="0" height="72" style="fill:#ffffff;fill-opacity:1;stroke:none;"/><rect x="0" width="180" y="0" height="72" style="fill:#ffffff;fill-opacity:1;stroke:none;"/><rect x="0" width="180" y="0" height="72" style="fill:url(#cae312ca9c);stroke:none;"/><g clip-rule="nonzero" clip-path="url(#65fc3c213e)"><g clip-rule="nonzero" clip-path="url(#041cc2d327)"><path style="fill:none;stroke-width:14;stroke-linecap:butt;stroke-linejoin:miter;stroke:#f5f5f5;stroke-opacity:1;stroke-miterlimit:4;" d="M 17.996979 0.00168341 L 168.605818 0.00168341 C 173.377481 0.00168341 177.956821 1.89531 181.330251 5.269314 C 184.708879 8.648549 186.600911 13.225685 186.600911 17.996369 L 186.600911 43.267395 C 186.600911 48.04331 184.708879 52.620447 181.330251 55.994451 C 177.956821 59.368454 173.377481 61.267312 168.605818 61.267312 L 17.996979 61.267312 C 13.225316 61.267312 8.645976 59.368454 5.272546 55.994451 C 1.893918 52.620447 0.00188615 48.04331 0.00188615 43.267395 L 0.00188615 17.996369 C 0.00188615 13.225685 1.893918 8.648549 5.272546 5.269314 C 8.645976 1.89531 13.225316 0.00168341 17.996979 0.00168341 Z M 17.996979 0.00168341 " transform="matrix(0.751507,0,0,0.746748,20.02202,13.02218)"/></g></g><path style="fill:none;stroke-width:7;stroke-linecap:butt;stroke-linejoin:miter;stroke:#f5f5f5;stroke-opacity:1;stroke-miterlimit:4;" d="M -0.0020377 3.501346 L 56.466717 3.501346 " transform="matrix(0.743774,0.000000000000000187,-0.000000000000000187,0.743774,-5.252391,53.727821)"/><g style="fill:#ffa500;fill-opacity:1;"><g transform="translate(38.389182, 43.382157)"><path style="stroke:none" d="M 14.671875 0 L 13.890625 -9.671875 L 13.796875 -9.671875 L 10.453125 -0.09375 L 8.25 -0.09375 L 4.90625 -9.671875 L 4.796875 -9.671875 L 4.03125 0 L 0.3125 0 L 1.78125 -16.3125 L 5.734375 -16.3125 L 9.34375 -6.890625 L 12.96875 -16.3125 L 16.921875 -16.3125 L 18.375 0 Z M 14.671875 0 "/></g></g><g style="fill:#ffa500;fill-opacity:1;"><g transform="translate(56.968898, 43.382157)"><path style="stroke:none" d="M 8.875 -10.140625 L 12.90625 -10.140625 L 4.9375 5.140625 L 0.90625 5.140625 L 4.40625 -1.578125 L -0.390625 -10.140625 L 3.640625 -10.140625 L 6.46875 -4.9375 Z M 8.875 -10.140625 "/></g></g><g style="fill:#ffa500;fill-opacity:1;"><g transform="translate(69.480577, 43.382157)"><path style="stroke:none" d="M 1.1875 -16.3125 L 7.140625 -16.3125 C 8.796875 -16.3125 10.132812 -15.878906 11.15625 -15.015625 C 12.1875 -14.160156 12.703125 -12.914062 12.703125 -11.28125 C 12.703125 -9.644531 12.179688 -8.363281 11.140625 -7.4375 C 10.109375 -6.507812 8.773438 -6.046875 7.140625 -6.046875 L 4.90625 -6.046875 L 4.90625 0 L 1.1875 0 Z M 4.90625 -9.015625 L 5.953125 -9.015625 C 6.773438 -9.015625 7.453125 -9.179688 7.984375 -9.515625 C 8.523438 -9.847656 8.796875 -10.398438 8.796875 -11.171875 C 8.796875 -11.941406 8.523438 -12.492188 7.984375 -12.828125 C 7.453125 -13.171875 6.773438 -13.34375 5.953125 -13.34375 L 4.90625 -13.34375 Z M 4.90625 -9.015625 "/></g></g><g style="fill:#ffa500;fill-opacity:1;"><g transform="translate(82.644525, 43.382157)"><path style="stroke:none" d="M 4.90625 -16.3125 L 4.90625 0 L 1.1875 0 L 1.1875 -16.3125 Z M 4.90625 -16.3125 "/></g></g><g style="fill:#ffa500;fill-opacity:1;"><g transform="translate(88.732356, 43.382157)"><path style="stroke:none" d="M 1.1875 -16.3125 L 5.90625 -16.3125 C 8.175781 -16.3125 10.113281 -15.535156 11.71875 -13.984375 C 13.320312 -12.429688 14.125 -10.488281 14.125 -8.15625 C 14.125 -5.8125 13.320312 -3.863281 11.71875 -2.3125 C 10.125 -0.769531 8.1875 0 5.90625 0 L 1.1875 0 Z M 4.90625 -3.328125 L 5.46875 -3.328125 C 6.832031 -3.328125 7.941406 -3.78125 8.796875 -4.6875 C 9.660156 -5.601562 10.101562 -6.753906 10.125 -8.140625 C 10.125 -9.523438 9.691406 -10.675781 8.828125 -11.59375 C 7.960938 -12.519531 6.84375 -12.984375 5.46875 -12.984375 L 4.90625 -12.984375 Z M 4.90625 -3.328125 "/></g></g><g style="fill:#ffa500;fill-opacity:1;"><g transform="translate(103.319434, 43.382157)"><path style="stroke:none" d="M 3.4375 -4.234375 C 4.070312 -4.234375 4.609375 -4.007812 5.046875 -3.5625 C 5.492188 -3.125 5.71875 -2.585938 5.71875 -1.953125 C 5.71875 -1.335938 5.492188 -0.804688 5.046875 -0.359375 C 4.609375 0.078125 4.070312 0.296875 3.4375 0.296875 C 2.820312 0.296875 2.289062 0.078125 1.84375 -0.359375 C 1.40625 -0.804688 1.1875 -1.335938 1.1875 -1.953125 C 1.1875 -2.585938 1.40625 -3.125 1.84375 -3.5625 C 2.289062 -4.007812 2.820312 -4.234375 3.4375 -4.234375 Z M 3.4375 -4.234375 "/></g></g><g style="fill:#ffa500;fill-opacity:1;"><g transform="translate(110.217659, 43.382157)"><path style="stroke:none" d="M 1.1875 0 L 1.1875 -10.140625 L 4.6875 -10.140625 L 4.6875 -9.078125 L 4.71875 -9.078125 C 5.632812 -9.984375 6.601562 -10.4375 7.625 -10.4375 C 8.363281 -10.4375 9.054688 -10.285156 9.703125 -9.984375 C 10.347656 -9.679688 10.835938 -9.210938 11.171875 -8.578125 C 12.191406 -9.816406 13.3125 -10.4375 14.53125 -10.4375 C 15.613281 -10.4375 16.539062 -10.132812 17.3125 -9.53125 C 18.09375 -8.925781 18.484375 -7.976562 18.484375 -6.6875 L 18.484375 0 L 14.984375 0 L 14.984375 -5.734375 C 14.984375 -6.273438 14.832031 -6.722656 14.53125 -7.078125 C 14.238281 -7.441406 13.796875 -7.625 13.203125 -7.625 C 12.691406 -7.625 12.300781 -7.46875 12.03125 -7.15625 C 11.757812 -6.851562 11.609375 -6.484375 11.578125 -6.046875 L 11.578125 0 L 8.078125 0 L 8.078125 -5.734375 C 8.078125 -6.273438 7.925781 -6.722656 7.625 -7.078125 C 7.332031 -7.441406 6.894531 -7.625 6.3125 -7.625 C 5.769531 -7.625 5.363281 -7.457031 5.09375 -7.125 C 4.820312 -6.789062 4.6875 -6.390625 4.6875 -5.921875 L 4.6875 0 Z M 1.1875 0 "/></g></g><g style="fill:#ffa500;fill-opacity:1;"><g transform="translate(129.68686, 43.382157)"><path style="stroke:none" d="M 11.4375 -4.578125 L 4.09375 -4.578125 C 4.09375 -3.867188 4.320312 -3.34375 4.78125 -3 C 5.238281 -2.65625 5.738281 -2.484375 6.28125 -2.484375 C 6.851562 -2.484375 7.300781 -2.554688 7.625 -2.703125 C 7.957031 -2.859375 8.332031 -3.160156 8.75 -3.609375 L 11.28125 -2.359375 C 10.226562 -0.585938 8.476562 0.296875 6.03125 0.296875 C 4.5 0.296875 3.1875 -0.222656 2.09375 -1.265625 C 1 -2.316406 0.453125 -3.582031 0.453125 -5.0625 C 0.453125 -6.539062 1 -7.804688 2.09375 -8.859375 C 3.1875 -9.910156 4.5 -10.4375 6.03125 -10.4375 C 7.632812 -10.4375 8.941406 -9.972656 9.953125 -9.046875 C 10.960938 -8.117188 11.46875 -6.789062 11.46875 -5.0625 C 11.46875 -4.820312 11.457031 -4.660156 11.4375 -4.578125 Z M 4.1875 -6.515625 L 8.046875 -6.515625 C 7.960938 -7.046875 7.753906 -7.453125 7.421875 -7.734375 C 7.085938 -8.015625 6.65625 -8.15625 6.125 -8.15625 C 5.539062 -8.15625 5.078125 -8.003906 4.734375 -7.703125 C 4.398438 -7.398438 4.21875 -7.003906 4.1875 -6.515625 Z M 4.1875 -6.515625 "/></g></g><path style="fill:none;stroke-width:7;stroke-linecap:butt;stroke-linejoin:miter;stroke:#f5f5f5;stroke-opacity:1;stroke-miterlimit:4;" d="M 0.0000630365 3.497938 L 56.468817 3.497938 " transform="matrix(0.743774,0.000000000000000187,-0.000000000000000187,0.743774,-17.402391,38.062387)"/><path style="fill:none;stroke-width:7;stroke-linecap:butt;stroke-linejoin:miter;stroke:#f5f5f5;stroke-opacity:1;stroke-miterlimit:4;" d="M -0.00230657 3.501347 L 56.466448 3.501347 " transform="matrix(-0.743774,0,0,-0.743774,185.252191,18.27218)"/><path style="fill:none;stroke-width:7;stroke-linecap:butt;stroke-linejoin:miter;stroke:#f5f5f5;stroke-opacity:1;stroke-miterlimit:4;" d="M -0.000229062 3.497939 L 56.468525 3.497939 " transform="matrix(-0.743774,-0.00000000129813,0.00000000129813,-0.743774,197.402173,33.937614)"/></g></svg>